<mxfile host="app.diagrams.net" modified="2025-02-11T07:21:57.166Z" agent="Mozilla/5.0 (Macintosh; Intel Mac OS X 10_15_7) AppleWebKit/537.36 (KHTML, like Gecko) Chrome/133.0.0.0 Safari/537.36" version="24.6.4" etag="Y2F3SYil173eUs4bDCea" type="github">
  <diagram name="第 1 页" id="D98fjdtTezHWubrjGnWd">
    <mxGraphModel>
      <root>
        <mxCell id="0" />
        <mxCell id="1" parent="0" />
      </root>
    </mxGraphModel>
  </diagram>
</mxfile>
